# xmcd
#
# Track frame offsets: 
#        151
#        17033
#        31660
#
# Disc length: 641 seconds
#
# Revision: 1
# Processed by: cddbd v1.5.2PL0 Copyright (c) Steve Scherf et al.
# Submitted via: ExactAudioCopyFreeDBPlugin 1.0
#
DISCID=15027f03
DTITLE=Ella Guru - Park Lake Speakers
DYEAR=2004
DGENRE=Jazz
TTITLE0=Park Lake Speakers
TTITLE1=I Can't Keep My Hands Still
TTITLE2=Warm Luke
EXTD=YEAR: 2004
EXTT0=
EXTT1=
EXTT2=
PLAYORDER=
